<?xml version="1.0" encoding="UTF-8" standalone="no"?>
<svg
   id="Layer_2"
   data-name="Layer 2"
   viewBox="0 0 4315173.5 4315300.5"
   version="1.1"
   width="4315173.5"
   height="4315300.5"
   xmlns="http://www.w3.org/2000/svg"
   xmlns:svg="http://www.w3.org/2000/svg">
  <defs
     id="defs1">
    <style
       id="style1">
      .cls-1 {
        fill: #0fc;
      }

      .cls-1, .cls-2 {
        stroke-width: 0px;
      }

      .cls-2 {
        fill: #1e1e1e;
      }
    </style>
  </defs>
  <g
     id="g4"
     transform="translate(-1448185.3,-1036908.1)">
    <rect
       class="cls-2"
       x="554"
       width="1646.78"
       height="1646.78"
       rx="103.60681"
       ry="103.60681"
       id="rect1"
       y="396"
       style="display:inline" />
    <path
       id="rect1-0"
       style="fill:#00ffcc;fill-opacity:1;stroke-width:0px"
       class="cls-2"
       d="M 656.60742,395.95082 C 599.20931,395.95082 553,442.18957 553,499.62424 V 1940.1078 c 0,57.4347 46.20931,103.6715 103.60742,103.6715 h 386.32418 c -46.9588,-30.0374 -77.62575,-59.8945 -90.84371,-76.7793 -37.595,-54.6236 -61.85246,-113.9104 -54.7168,-178.5435 5.70288,-50.8633 18.12973,-92.7282 36.9668,-150.1327 6.0585,-21.5034 16.8814,-42.1049 27.37695,-61.9847 2.12605,-3.5375 4.54664,-6.1225 6.0586,-5.738 0.0969,0.025 0.19323,0.049 0.22461,0.088 1.97853,0.7817 2.50252,3.031 2.66015,8.099 -0.0203,24.2981 0.64533,48.0076 0.625,72.3058 0.19412,1.8767 0.59547,5.2517 1.59375,5.5053 0.82383,0.2095 3.07016,-2.9469 3.70703,-3.9516 16.50664,-29.0064 32.91302,-57.9043 49.45122,-86.9128 1.7779,-2.573 3.4736,-4.011 4.6367,-3.7153 l 0.029,0.01 c 1.7542,0.4461 2.8502,1.7779 3.9687,6.1095 9.0272,45.5951 18.0975,91.1384 27.086,136.7237 0.5354,2.0359 1.2768,5.2186 2.2363,5.4624 1.5449,0.011 4.1021,-4.1293 5.2676,-5.1029 31.5743,-43.8935 58.5247,-91.884 105.2851,-132.1955 2.5235,-2.177 5.0768,-4.2322 6.6953,-3.8207 l 0.1368,0.035 c 1.736,0.7616 2.5731,4.2473 3.3457,7.7062 12.3254,58.3273 23.4965,110.5585 34.5117,162.7091 0.5816,2.0164 1.2978,5.2846 2.1894,5.5112 0.8917,0.2267 3.411,-2.3327 4.6836,-4.0534 5.0149,-6.7469 9.78,-13.7334 15.0899,-20.2609 42.9418,-53.3512 84.5422,-107.9632 129.7422,-159.4394 7.0155,-7.9625 12.2856,-13.4764 16.3261,-17.2396 5.1873,-4.9066 8.2423,-6.9797 10.8203,-6.3243 2.5781,0.6555 4.7211,4.1204 8.0977,10.3269 2.4657,4.6741 5.9527,10.7656 10.4961,18.1874 38.3316,62.4097 88.4391,106.5242 136.168,156.549 7.7687,8.1697 16.6477,15.4234 25.8925,21.924 5.5921,4.0235 10.824,6.6552 15.6797,7.8898 13.2103,3.3586 23.3071,-3.8518 28.7832,-22.1273 19.0806,-64.6212 36.1341,-129.5924 25.1407,-198.1633 -2.4257,-15.112 -3.4927,-30.5393 -4.6641,-45.7558 -1.7158,-21.89 2.7972,-30.107 16.7344,-26.5637 3.6636,0.9315 7.9415,2.6492 12.9961,5.1731 17.2206,8.7351 33.7224,18.9179 50.3828,28.9247 30.4682,18.1635 59.9722,38.2185 91.5664,54.3451 3.6405,1.8755 8.4365,3.5901 13.457,4.8665 11.7565,2.9889 24.9277,3.7372 28.3594,-0.6351 13.1553,-16.4988 21.3274,-38.4458 26.1738,-59.4832 3.2794,-14.0126 -2.5106,-30.2593 -3.9609,-45.4743 -1.0037,-10.8789 -3.3614,-22.0712 3.6855,-23.6558 1.4664,-0.3705 3.3662,-0.3727 5.8086,0.2483 2.8398,0.7221 6.4716,2.3479 11.0508,5.484 1.7708,1.1936 6.1621,5.5098 9.7578,6.424 1.2212,0.3104 2.3703,0.2205 3.2559,-0.5042 3.7804,-2.9828 5.9639,-22.228 6.541,-25.354 15.9013,-85.6239 24.5159,-173.8026 27.1445,-258.5162 -0.025,-2.2571 -0.027,-4.7265 0,-7.3525 -50.0073,48.3856 -95.9296,166.6638 -196.8262,187.8325 -21.2681,4.4424 -43.2818,4.9987 -64.9004,2.7753 -55.8352,-5.5024 -111.3125,-19.3283 -165.8593,-1.5421 -35.4283,11.6104 -70.0864,35.7955 -102.1035,54.7362 -41.626,24.5197 -74.8081,36.9493 -119.2364,47.1492 -51.0464,10.6646 -146.2512,17.3403 -225.9101,-2.9122 -10.7,-2.7202 -21.1274,-5.9395 -31.1758,-9.723 -31.0828,-11.5984 -59.44931,-21.0622 -87.2461,-28.1291 -27.79679,-7.0671 -53.77824,-11.5247 -82.06445,-13.6573 -37.48049,-5.3786 -89.55386,11.8073 -123.75391,42.7989 -44.58547,40.4823 -81.6672,87.3746 -103.04492,145.1139 -2.59303,7.0426 -8.25352,19.4993 -16.35352,18.0388 l -0.5625,-0.1426 c -7.55979,-1.922 -9.06674,-15.5306 -8.3125,-22.4832 2.06511,-19.917 5.06245,-40.5777 11.69141,-59.0454 17.44613,-48.2286 34.9775,-80.4232 59.39648,-115.9664 58.23688,-84.5342 145.51282,-95.4132 237.90039,-81.5676 27.76663,4.179 55.40874,10.1104 82.75002,17.0618 19.6845,5.0046 39.1939,10.5341 58.5723,16.3385 7.6117,2.2862 15.1967,4.3895 22.8535,6.336 66.9042,17.0097 134.6127,20.3266 198.6328,-1.8137 54.5,-18.8616 102.3815,-52.4866 155.2793,-76.0093 61.3235,-27.3273 125.8204,-36.1524 190.6172,-19.8231 7.0827,1.7283 14.1974,3.3317 21.2929,4.8877 58.1702,12.6418 82.2155,1.9775 119.3887,-43.4866 40.8189,-49.9883 81.5685,-95.8429 126.4824,-142.2917 17.8761,-17.3736 32.4349,-28.3443 42.5508,-35.2295 -1.4687,-47.12177 -4.7054,-91.95777 -9.623,-133.37982 -2.1557,-18.49168 -11.9421,-66.4995 -17.3008,-75.70838 -2.9873,-5.26087 -15.1234,-18.09204 -16.7129,-18.49613 l -0.029,-0.008 c -1.3123,0.0483 -4.2612,5.56557 -6.1289,10.6865 -3.0549,8.57714 -4.5517,13.61807 -6.7754,22.37557 -12.794,49.41149 -21.812,80.21884 -35.0098,129.31084 -3.5026,13.38801 -5.5236,22.44469 -14.3222,51.40772 -6.4836,21.6742 -13.6266,27.7764 -27.7286,24.1912 -6.1738,-1.5696 -13.7009,-5.0015 -23.0761,-9.7699 -7.1627,-3.6485 -15.5789,-8.0072 -24.8106,-14.1535 -32.2172,-21.27177 -62.187,-45.98811 -93.7187,-68.29353 -11.7699,-8.34034 -24.8223,-14.96333 -37.8418,-21.26744 -9.7294,-4.75524 -16.5973,-8.01883 -21.9473,-9.37901 -12.4543,-3.16636 -16.6955,3.98399 -29.9297,26.48171 -37.0632,62.34127 -73.7426,124.84167 -112.4316,186.10877 -14.1214,22.3754 -21.1302,31.0002 -32.6152,28.0803 -6.736,-1.7124 -15.1188,-7.4679 -27.4063,-16.8174 -43.617,-33.1418 -85.1773,-69.2194 -127.7285,-103.9176 -10.225,-8.3297 -17.9349,-13.5622 -24.7969,-15.3067 -11.0586,-2.8115 -19.8054,3.5141 -33.0937,20.5365 -28.6799,36.6796 -55.4062,75.0525 -82.2676,113.1442 -17.8113,25.1645 -33.0578,35.6402 -49.9317,31.3501 -10.5352,-2.6784 -21.7358,-11.195 -34.5859,-25.6431 -14.4125,-16.2187 -26.236,-34.7102 -40.3926,-51.2457 -6.0023,-7.0804 -16.192,-18.1898 -21.93942,-19.6511 -0.82383,-0.2095 -1.56275,-0.2219 -2.17969,0.014 -11.32366,4.3275 -21.08573,15.4649 -28.82617,25.8757 -15.32193,20.4804 -28.60292,42.4707 -43.3086,63.5309 -3.51404,4.9809 -6.15053,11.6302 -12.41211,12.072 -0.10431,0 -0.25095,0.01 -0.37695,-0.023 -2.74285,-0.6973 -4.49625,-10.8177 -4.61914,-18.6231 -1.46996,-21.4767 -1.72552,-37.9365 -1.2207,-63.9803 0.97302,-50.765 2.28527,-101.6082 1.91015,-152.46813 -0.13863,-23.95664 -11.25504,-42.22837 -33.375,-56.00832 -14.24678,-8.82553 -21.59731,-14.78249 -33.89844,-26.2726 -5.75654,-6.66697 -15.64851,-16.99775 -20.99609,-24.05631 -40.9797,-56.81871 -51.96572,-148.82405 -18.20703,-234.27494 37.63645,-85.13802 97.53154,-162.53459 156.63086,-224.32446 z" />
    <g
       id="Capa_1"
       data-name="Capa 1"
       transform="rotate(14.255884,1480.5363,1384.6083)">
      <g
         id="g3">
        <g
           id="g2">
          <path
             class="cls-1"
             d="m 1437.93,626.15 c 1.38,-13.82 6.99,-29.24 15.86,-43.32 16.08,-25.69 38.76,-41.67 59.13,-41.67 7.13,0 13.92,1.96 19.73,5.51 13.16,8.29 19.73,24.17 17.75,43.44 -1.38,13.81 -7.01,29.22 -15.86,43.34 -16.1,25.69 -38.78,41.65 -59.16,41.65 -7.11,0 -13.92,-1.96 -19.71,-5.59 -13.18,-8.23 -19.71,-24.12 -17.73,-43.36 v 0 z"
             id="path1" />
        </g>
      </g>
    </g>
  </g>
</svg>
