<?xml version="1.0" encoding="UTF-8"?>
<svg id="Layer_2" data-name="Layer 2" xmlns="http://www.w3.org/2000/svg" viewBox="0 0 2618.78 2618.78">
  <defs>
    <style>
      .cls-1 {
        fill: #0fc;
      }

      .cls-1, .cls-2 {
        stroke-width: 0px;
      }

      .cls-2 {
        fill: #1e1e1e;
      }
    </style>
  </defs>
  <g id="Capa_1" data-name="Capa 1">
    <g>
      <rect class="cls-2" x="0" width="2618.78" height="2618.78" rx="164.76" ry="164.76"/>
      <g>
        <path class="cls-1" d="M1437.93,626.15c1.38-13.82,6.99-29.24,15.86-43.32,16.08-25.69,38.76-41.67,59.13-41.67,7.13,0,13.92,1.96,19.73,5.51,13.16,8.29,19.73,24.17,17.75,43.44-1.38,13.81-7.01,29.22-15.86,43.34-16.1,25.69-38.78,41.65-59.16,41.65-7.11,0-13.92-1.96-19.71-5.59-13.18-8.23-19.71-24.12-17.73-43.36h0Z"/>
        <path class="cls-1" d="M2254.53,2233.25l-31.28-215.82c-69,23.1-140.48,39.22-213.7,49.81-87.81,12.71-155.64,13.56-243.55,25.52-16.32,2.21-81.57,20.82-96.49,28.48-37.34,15.13-116.77,35.4-247.54,40.1-6.13.14-12.16.2-18.13.2-152.54,0-257.15-55.78-289.62-80.85-49.88-43.65-87.98-95.1-96.97-159.46-6.99-50.67-5.25-94.28-1.12-154.52.58-22.32,6-44.94,11.28-66.78,1.19-3.95,2.9-7.05,4.46-7.05.1,0,.2,0,.24.03,2.11.27,3.17,2.32,4.57,7.19,5.96,23.54,12.44,46.34,18.4,69.88.65,1.77,1.87,4.94,2.9,4.94.85,0,2.25-3.61,2.62-4.74,8.86-32.16,17.65-64.19,26.54-96.36,1.09-2.93,2.38-4.74,3.58-4.74h.03c1.81,0,3.2,1.02,5.35,4.94,19.97,41.94,39.97,83.82,59.9,125.76,1.02,1.84,2.52,4.74,3.51,4.74,1.5-.37,2.96-5.01,3.85-6.24,19.8-50.29,34.11-103.41,69.51-153.97,1.91-2.73,3.88-5.35,5.55-5.35h.14c1.87.31,3.54,3.48,5.14,6.64,26.3,53.46,49.98,101.3,73.49,149.1,1.06,1.81,2.56,4.8,3.48,4.8s2.73-3.1,3.54-5.08c3.2-7.77,6.1-15.71,9.64-23.34,28.49-62.25,55.37-125.39,86.51-186.38,4.84-9.44,8.59-16.08,11.58-20.72,3.82-6.03,6.27-8.79,8.93-8.79s5.59,2.83,10.39,8.01c3.54,3.92,8.42,8.96,14.65,15.03,52.51,51.01,111.93,81.4,170.5,118.1,9.54,6,19.93,10.84,30.49,14.86,6.41,2.52,12.13,3.78,17.14,3.78,13.63,0,21.64-9.47,22.45-28.52,2.59-67.29,3.13-134.42-24.4-198.13-6.07-14.04-10.9-28.72-15.78-43.17-7.05-20.78-4.7-29.85,9.68-29.85,3.78,0,8.35.61,13.87,1.81,18.84,4.22,37.34,10.02,55.95,15.61,34,10.09,67.53,22.25,102.12,30.09,3.99.92,9.06,1.4,14.24,1.4,12.13,0,25.08-2.52,27.33-7.6,8.69-19.22,11.21-42.49,10.73-64.06-.27-14.38-9.88-28.69-15.03-43.07-3.65-10.29-8.69-20.55-2.25-23.82,1.33-.72,3.17-1.19,5.69-1.19,2.93,0,6.85.68,12.06,2.59,2.01.72,7.33,3.82,11.04,3.82,1.26,0,2.35-.37,3.03-1.29,2.93-3.82.31-23,.1-26.17-5.66-86.85-19.01-174.38-37.31-257.08-.58-2.18-1.19-4.57-1.81-7.12-36.56,59.18-51.96,185.05-144.54,230.4-19.52,9.54-40.72,15.5-62.22,18.67-55.47,8.42-112.64,8.69-161.13,39.35-31.48,19.97-59.12,51.93-85.49,78.16-34.31,34-63.41,54.21-103.96,75.03-46.85,22.9-137.48,52.81-219.67,52.81-11.04,0-21.94-.55-32.61-1.74-32.98-3.58-62.8-5.76-91.48-5.76s-54.96,2.08-82.9,6.98c-37.65,4.02-83.89,33.49-109.41,71.93-33.25,50.19-57.65,104.74-64.16,165.93-.78,7.46-3.2,20.92-11.41,21.5h-.58c-7.8,0-12.61-12.81-13.59-19.73-2.9-19.8-5.08-40.55-3.2-60.07,5.04-51.01,14.11-86.51,29.03-126.95,35.64-96.22,117.55-128.25,210.5-137.59,27.94-2.79,56.19-3.85,84.4-3.85,20.31,0,40.58.55,60.79,1.4,7.94.34,15.81.51,23.71.51,69.03,0,135.47-13.46,192.07-50.67,48.18-31.69,86.31-76.05,131.79-111.86,52.71-41.57,113.05-66,179.87-66.14,7.29-.07,14.58-.27,21.84-.51,59.49-2.08,80.17-18.33,105.01-71.52,27.26-58.47,55.47-112.92,87.57-168.97,13.05-21.23,24.46-35.44,32.57-44.6-13.02-45.28-27.19-87.91-42.15-126.82-6.64-17.38-27.94-61.47-35.4-69.07-4.19-4.36-19.11-13.8-20.75-13.8h-.03c-1.26.37-2.76,6.44-3.31,11.86-.85,9.06-1.06,14.31-1.06,23.34-.24,51.01-1.4,83.07-2.11,133.87-.1,13.83.17,23.1-1.23,53.32-.95,22.59-6.37,30.26-20.92,30.26-6.37,0-14.51-1.47-24.77-3.78-7.84-1.77-17.07-3.92-27.53-7.6-36.46-12.67-71.59-29.23-107.64-43.07-13.46-5.18-27.74-8.38-41.91-11.28-10.6-2.21-18.06-3.68-23.58-3.68-12.85,0-15.2,7.97-22.49,33.02-20.58,69.51-40.75,139.08-63.17,207.95-8.18,25.15-12.85,35.23-24.7,35.23-6.95,0-16.49-3.51-30.7-9.54-50.43-21.36-99.59-46.07-149.37-69.2-11.96-5.55-20.72-8.72-27.8-8.72-11.41,0-18.33,8.28-27.02,28.04-18.77,42.59-35.23,86.34-51.89,129.85-11.07,28.76-23.27,42.66-40.68,42.66-10.87,0-23.82-5.49-39.83-16.32-17.96-12.16-33.97-27.16-51.76-39.69-7.56-5.38-20.17-13.63-26.1-13.63-.85,0-1.57.17-2.11.55-9.91,6.98-16.63,20.17-21.57,32.16-9.81,23.61-17.27,48.18-26.34,72.2-2.18,5.69-3.1,12.78-9.06,14.75-.1.03-.24.07-.37.07-2.83,0-7.02-9.37-9.06-16.9-6.71-20.44-11.01-36.32-16.93-61.67-11.55-49.41-22.79-98.98-35.67-148.15-6.03-23.17-21.3-38.13-46.13-46.03-15.98-5.04-24.57-9-39.32-17.1-7.22-5.04-19.35-12.61-26.27-18.13-53.7-44.94-86.99-131.35-75.3-222.43,25.69-151.79,115.47-298.78,177.52-378.34,65.79-82.66,163.31-169,278.41-230.98l-750.04,81.2,247.05,2147.44"/>
      </g>
    </g>
  </g>
</svg>