<?xml version="1.0" encoding="UTF-8" standalone="no"?>
<svg xmlns="http://www.w3.org/2000/svg" xmlns:xlink="http://www.w3.org/1999/xlink" version="1.1" width="556.76356" height="556.76386" viewBox="668.11822 368.11807 556.76356 556.76386"><g fill="none" fill-rule="nonzero" stroke="none" stroke-width="0.99535" stroke-linecap="butt" stroke-linejoin="miter" stroke-miterlimit="10" font-family="none" font-weight="none" font-size="none"><path d="M1060.08698,426.69824c-6.2826,-0.40058 -13.8398,2.95498 -20.3555,9.18164c-4.1,3.89543 -7.2384,8.50479 -8.8496,12.94141v0c-2.2624,6.17167 -1.4416,11.95371 2.2109,15.76758c1.6034,1.68023 3.6835,2.8952 6.0254,3.49023c6.7129,1.70559 15.5196,-1.65306 22.9727,-8.76758c4.0967,-3.91027 7.2393,-8.51589 8.8496,-12.94922c2.2648,-6.18155 1.43,-11.96101 -2.211,-15.79296c-1.6166,-1.65555 -3.6886,-2.8701 -6.0371,-3.4668c-0.8387,-0.21309 -1.7099,-0.34707 -2.6074,-0.4043z" id="Path-1" fill="#00ffcc"/><path d="M800.67682,368.11816h-42.97657c-49.62804,0 -89.58203,39.95399 -89.58203,89.58203v377.60157c0,49.62804 39.95399,89.58008 89.58203,89.58008h73.07227c-14.77593,-9.74001 -24.63377,-19.25952 -28.92578,-24.74219c-12.7767,-18.56388 -21.02076,-38.71407 -18.5957,-60.67969c1.93812,-17.28593 6.1607,-31.51251 12.5625,-51.02148c2.05898,-7.30796 5.73776,-14.31025 9.30468,-21.06641c0.72254,-1.20222 1.54476,-2.07989 2.0586,-1.94922c0.0329,0.008 0.0655,0.016 0.0762,0.0293c0.67241,0.26566 0.85073,1.02958 0.9043,2.75195c-0.007,8.25773 0.2198,16.31646 0.21289,24.57422c0.066,0.6378 0.20174,1.7849 0.54101,1.87109c0.27998,0.0712 1.04333,-1.0023 1.25977,-1.34375c5.60979,-9.85785 11.18611,-19.67855 16.80664,-29.53711c0.60422,-0.87443 1.18089,-1.36416 1.57617,-1.26367l0.01,0.004c0.59617,0.15161 0.96753,0.60407 1.34765,2.07617c3.0679,15.49554 6.15033,30.97459 9.20508,46.4668c0.18196,0.6919 0.43563,1.77261 0.76172,1.85547c0.52504,0.004 1.39296,-1.4035 1.78906,-1.73438c10.73055,-14.91724 19.88969,-31.22588 35.78125,-44.92578c0.85761,-0.73986 1.72534,-1.43868 2.27539,-1.29883l0.0469,0.0117c0.58998,0.25883 0.87415,1.44363 1.13672,2.61914c4.18879,19.82258 7.98499,37.57345 11.72851,55.29688c0.19766,0.68528 0.44113,1.79603 0.74414,1.87304c0.30305,0.077 1.15931,-0.79217 1.5918,-1.37695c1.70432,-2.29294 3.32433,-4.66834 5.12891,-6.88672c14.5938,-18.13145 28.73249,-36.69131 44.09375,-54.18555c2.38422,-2.70606 4.1737,-4.58044 5.54687,-5.85937c1.76291,-1.66751 2.8016,-2.37118 3.67773,-2.14844c0.87617,0.22277 1.60442,1.40048 2.75196,3.50977c0.83797,1.5885 2.02428,3.65738 3.56836,6.17968c13.02702,21.20999 30.05468,36.20411 46.27538,53.20508c2.6402,2.77648 5.659,5.23998 8.8008,7.44922c1.9005,1.36739 3.6779,2.26206 5.3281,2.68164c4.4896,1.14142 7.9202,-1.30858 9.7813,-7.51953c6.4845,-21.96157 12.281,-44.04183 8.5449,-67.3457c-0.8244,-5.13583 -1.1878,-10.37944 -1.5859,-15.55078c-0.5832,-7.43934 0.9509,-10.23154 5.6875,-9.02735c1.245,0.31657 2.7001,0.90007 4.4179,1.75782c5.8525,2.96862 11.4591,6.42926 17.1211,9.83007c10.3547,6.17289 20.3819,12.98812 31.1192,18.46875c1.2372,0.63739 2.868,1.22051 4.5742,1.6543c3.9954,1.01578 8.4724,1.27109 9.6387,-0.21484c4.4708,-5.60714 7.2474,-13.06722 8.8945,-20.2168c1.1145,-4.7622 -0.8528,-10.28229 -1.3457,-15.45313c-0.3411,-3.6972 -1.143,-7.50248 1.2519,-8.04101c0.4984,-0.12591 1.1446,-0.12511 1.9747,0.0859c0.9651,0.24541 2.1996,0.79747 3.7558,1.86328c0.6018,0.40565 2.0925,1.8729 3.3145,2.18359c0.415,0.10549 0.8064,0.0744 1.1074,-0.17187c1.2848,-1.01371 2.0265,-7.55482 2.2226,-8.61719c5.4041,-29.09935 8.3313,-59.06743 9.2247,-87.85742c-0.01,-0.76708 -0.01,-1.6056 0,-2.49805c-16.9951,16.44388 -32.6009,56.64174 -66.8907,63.83594c-7.228,1.50975 -14.7095,1.69899 -22.0566,0.94336c-18.9757,-1.87 -37.8294,-6.57005 -56.36722,-0.52539c-12.04034,3.9458 -23.82013,12.1665 -34.70117,18.60351c-14.14664,8.33304 -25.42249,12.55699 -40.52149,16.02344c-17.34816,3.62438 -49.70324,5.8926 -76.77539,-0.99023c-3.6364,-0.92446 -7.18074,-2.01886 -10.5957,-3.30469c-10.56352,-3.94173 -20.20363,-7.15691 -29.65039,-9.5586c-9.44676,-2.40175 -18.27754,-3.9178 -27.89063,-4.64257c-12.73777,-1.82792 -30.43372,4.0124 -42.05664,14.54492c-15.15241,13.75794 -27.75625,29.69561 -35.02148,49.31836c-0.88124,2.39344 -2.80385,6.62525 -5.55664,6.1289l-0.19141,-0.0469c-2.56919,-0.65319 -3.0825,-5.27778 -2.82617,-7.64063c0.70183,-6.76881 1.72175,-13.79209 3.97461,-20.06836c5.92908,-16.39053 11.88674,-27.33076 20.18555,-39.41015c19.79185,-28.72902 49.45356,-32.42614 80.85156,-27.72071c9.43651,1.42024 18.82913,3.4364 28.12109,5.79883c6.6898,1.70082 13.32049,3.57816 19.90625,5.55078c2.58685,0.77697 5.16541,1.49278 7.76758,2.1543c22.73744,5.78077 45.74857,6.90722 67.50586,-0.61719c18.52187,-6.41013 34.79412,-17.83782 52.77148,-25.83203c20.84084,-9.28721 42.76005,-12.28585 64.78125,-6.73633c2.4071,0.58736 4.8249,1.1333 7.2364,1.66211c19.7691,4.29633 27.9408,0.67172 40.5742,-14.77929c13.8723,-16.98857 27.7223,-32.57176 42.9863,-48.35743c6.0752,-5.90443 11.023,-9.63467 14.4609,-11.9746c-0.4991,-16.01438 -1.6002,-31.25081 -3.2714,-45.32813c-0.7327,-6.28441 -4.0578,-22.60082 -5.879,-25.73047c-1.0152,-1.78791 -5.1395,-6.14782 -5.6796,-6.28515l-0.01,-0.002c-0.446,0.0164 -1.4493,1.89051 -2.084,3.63086c-1.0382,2.91495 -1.547,4.62727 -2.3027,7.60352c-4.3481,16.79253 -7.4132,27.26331 -11.8985,43.94726c-1.1903,4.54993 -1.8769,7.6276 -4.8671,17.47071c-2.2035,7.36599 -4.6313,9.44108 -9.4239,8.22265c-2.0981,-0.53343 -4.6556,-1.69976 -7.8418,-3.32031c-2.4342,-1.23995 -5.2942,-2.72172 -8.4316,-4.81055c-10.9491,-7.22923 -21.1355,-15.63042 -31.8516,-23.21093c-4,-2.83447 -8.4347,-5.08411 -12.8594,-7.22657c-3.3065,-1.61607 -5.6407,-2.72524 -7.4589,-3.1875c-4.2326,-1.07609 -5.6743,1.35413 -10.1719,9c-12.596,21.18674 -25.06053,42.42637 -38.20902,63.24805c-4.79916,7.6043 -7.18275,10.5353 -11.08593,9.54297c-2.28924,-0.58196 -5.13659,-2.53741 -9.3125,-5.71485c-14.82328,-11.26326 -28.9491,-23.52419 -43.41016,-35.3164c-3.47498,-2.83086 -6.09372,-4.6083 -8.42578,-5.20117c-3.75828,-0.95549 -6.73201,1.19344 -11.24805,6.97851c-9.74689,12.4656 -18.83011,25.50763 -27.95898,38.45313c-6.05319,8.55218 -11.23414,12.11229 -16.96875,10.65429c-3.5804,-0.91025 -7.38679,-3.80464 -11.75391,-8.71484c-4.8981,-5.51193 -8.91738,-11.79641 -13.72852,-17.41602c-2.03988,-2.40627 -5.50181,-6.18306 -7.45507,-6.67968c-0.27998,-0.0712 -0.53057,-0.0743 -0.74024,0.006c-3.84835,1.47071 -7.16628,5.25485 -9.79687,8.79297c-5.20718,6.96028 -9.72102,14.43447 -14.71875,21.59179c-1.19425,1.69276 -2.09074,3.95142 -4.21875,4.10156c-0.0355,0 -0.0861,0.003 -0.12891,-0.008c-0.93216,-0.23698 -1.5266,-3.67546 -1.56836,-6.32812c-0.49957,-7.29888 -0.58757,-12.89313 -0.41601,-21.74414c0.33068,-17.25254 0.77787,-34.53162 0.65039,-51.81641c-0.0471,-8.14168 -3.82627,-14.35203 -11.34375,-19.03516c-4.84179,-2.99936 -7.33899,-5.0228 -11.51953,-8.92773c-1.95637,-2.26578 -5.31934,-5.77692 -7.13672,-8.17578c-13.92699,-19.30989 -17.66042,-50.57858 -6.1875,-79.61914c12.42663,-28.11049 32.00345,-53.64119 51.52539,-74.33399z" id="Path-1-1" fill="#00ffcc"/><path d="M800.67682,368.11816c-19.52194,20.6928 -39.09876,46.2235 -51.52539,74.33399c-11.47292,29.04056 -7.73949,60.30925 6.1875,79.61914c1.81738,2.39886 5.18035,5.91 7.13672,8.17578c4.18054,3.90493 6.67774,5.92837 11.51953,8.92773c7.51748,4.68313 11.29664,10.89348 11.34375,19.03516c0.12748,17.28479 -0.31971,34.56387 -0.65039,51.81641c-0.17156,8.85101 -0.0836,14.44526 0.41601,21.74414c0.0418,2.65266 0.6362,6.09114 1.56836,6.32812c0.0428,0.0112 0.0935,0.008 0.12891,0.008c2.12801,-0.15014 3.0245,-2.4088 4.21875,-4.10156c4.99773,-7.15732 9.51157,-14.63151 14.71875,-21.59179c2.63059,-3.53812 5.94852,-7.32226 9.79687,-8.79297c0.20967,-0.0802 0.46026,-0.0771 0.74024,-0.006c1.95326,0.49662 5.41519,4.27341 7.45507,6.67968c4.81114,5.61961 8.83042,11.90409 13.72852,17.41602c4.36712,4.9102 8.17351,7.80459 11.75391,8.71484c5.73461,1.458 10.91556,-2.10211 16.96875,-10.65429c9.12887,-12.9455 18.21209,-25.98753 27.95898,-38.45313c4.51604,-5.78507 7.48977,-7.934 11.24805,-6.97851c2.33206,0.59287 4.9508,2.37031 8.42578,5.20117c14.46106,11.79221 28.58688,24.05314 43.41016,35.3164c4.17591,3.17744 7.02326,5.13289 9.3125,5.71485c3.90318,0.99233 6.28677,-1.93867 11.08593,-9.54297c13.14849,-20.82168 25.613,-42.06131 38.209,-63.24805c4.4976,-7.64587 5.9393,-10.07609 10.1719,-9c1.8182,0.46226 4.1524,1.57143 7.4589,3.1875c4.4247,2.14246 8.8594,4.3921 12.8594,7.22657c10.7161,7.58051 20.9025,15.9817 31.8516,23.21093c3.1374,2.08883 5.9974,3.5706 8.4316,4.81055c3.1862,1.62055 5.7437,2.78688 7.8418,3.32031c4.7926,1.21843 7.2204,-0.85666 9.4239,-8.22265c2.9902,-9.84311 3.6768,-12.92078 4.8671,-17.47071c4.4853,-16.68395 7.5504,-27.15473 11.8985,-43.94726c0.7557,-2.97625 1.2645,-4.68857 2.3027,-7.60352c0.6347,-1.74035 1.638,-3.61445 2.084,-3.63086l0.01,0.002c0.5401,0.13733 4.6644,4.49724 5.6796,6.28515c1.8212,3.12965 5.1463,19.44606 5.879,25.73047c1.6712,14.07732 2.7723,29.31375 3.2714,45.32813c-3.4379,2.33993 -8.3857,6.07017 -14.4609,11.9746c-15.264,15.78567 -29.114,31.36886 -42.9863,48.35743c-12.6334,15.45101 -20.8051,19.07562 -40.5742,14.77929c-2.4115,-0.52881 -4.8293,-1.07475 -7.2364,-1.66211c-22.0212,-5.54952 -43.94039,-2.55088 -64.78123,6.73633c-17.97736,7.99421 -34.24961,19.4219 -52.77148,25.83203c-21.75729,7.52441 -44.76841,6.39796 -67.50586,0.61719c-2.60217,-0.66152 -5.18073,-1.37733 -7.76758,-2.1543c-6.58576,-1.97262 -13.21645,-3.84996 -19.90625,-5.55078c-9.29196,-2.36243 -18.68458,-4.37859 -28.12109,-5.79883c-31.398,-4.70543 -61.05971,-1.00831 -80.85156,27.72071c-8.29881,12.07939 -14.25647,23.01962 -20.18555,39.41015c-2.25286,6.27627 -3.27278,13.29955 -3.97461,20.06836c-0.25633,2.36285 0.25698,6.98744 2.82617,7.64063l0.19141,0.0469c2.75279,0.49635 4.6754,-3.73546 5.55664,-6.1289c7.26523,-19.62275 19.86907,-35.56042 35.02148,-49.31836c11.62292,-10.53252 29.31887,-16.37284 42.05664,-14.54492c9.61309,0.72477 18.44387,2.24082 27.89063,4.64257c9.44676,2.40169 19.08687,5.61687 29.65039,9.5586c3.41496,1.28583 6.9593,2.38023 10.5957,3.30469c27.07215,6.88283 59.42723,4.61461 76.77539,0.99023c15.099,-3.46645 26.37485,-7.6904 40.52149,-16.02344c10.88104,-6.43701 22.66083,-14.65771 34.70117,-18.60351c18.5378,-6.04466 37.3915,-1.34461 56.3672,0.52539c7.3471,0.75563 14.8286,0.56639 22.0566,-0.94336c34.2898,-7.1942 49.8956,-47.39206 66.8907,-63.83594c-0.01,0.89245 -0.01,1.73097 0,2.49805c-0.8934,28.78999 -3.8206,58.75807 -9.2247,87.85742c-0.1961,1.06237 -0.9378,7.60348 -2.2226,8.61719c-0.301,0.24629 -0.6924,0.27736 -1.1074,0.17187c-1.222,-0.31069 -2.7127,-1.77794 -3.3145,-2.18359c-1.5562,-1.06581 -2.7907,-1.61787 -3.7558,-1.86328c-0.8301,-0.21105 -1.4763,-0.21185 -1.9747,-0.0859c-2.3949,0.53853 -1.593,4.34381 -1.2519,8.04101c0.4929,5.17084 2.4602,10.69093 1.3457,15.45313c-1.6471,7.14958 -4.4237,14.60966 -8.8945,20.2168c-1.1663,1.48593 -5.6433,1.23062 -9.6387,0.21484c-1.7062,-0.43379 -3.337,-1.01691 -4.5742,-1.6543c-10.7373,-5.48063 -20.7645,-12.29586 -31.1192,-18.46875c-5.662,-3.40081 -11.2686,-6.86145 -17.1211,-9.83007c-1.7178,-0.85775 -3.1729,-1.44125 -4.4179,-1.75782c-4.7366,-1.20419 -6.2707,1.58801 -5.6875,9.02735c0.3981,5.17134 0.7615,10.41495 1.5859,15.55078c3.7361,23.30387 -2.0604,45.38413 -8.5449,67.3457c-1.8611,6.21095 -5.2917,8.66095 -9.7813,7.51953c-1.6502,-0.41958 -3.4276,-1.31425 -5.3281,-2.68164c-3.1418,-2.20924 -6.1606,-4.67274 -8.8008,-7.44922c-16.22068,-17.00097 -33.24834,-31.99509 -46.27536,-53.20508c-1.54408,-2.5223 -2.73039,-4.59118 -3.56836,-6.17968c-1.14754,-2.10929 -1.87579,-3.287 -2.75196,-3.50977c-0.87613,-0.22274 -1.91482,0.48093 -3.67773,2.14844c-1.37317,1.27893 -3.16265,3.15331 -5.54687,5.85937c-15.36126,17.49424 -29.49995,36.0541 -44.09375,54.18555c-1.80458,2.21838 -3.42459,4.59378 -5.12891,6.88672c-0.43249,0.58478 -1.28875,1.45399 -1.5918,1.37695c-0.30301,-0.077 -0.54648,-1.18776 -0.74414,-1.87304c-3.74352,-17.72343 -7.53972,-35.4743 -11.72851,-55.29688c-0.26257,-1.17551 -0.54674,-2.36031 -1.13672,-2.61914l-0.0469,-0.0117c-0.55005,-0.13985 -1.41778,0.55897 -2.27539,1.29883c-15.89156,13.6999 -25.0507,30.00854 -35.78125,44.92578c-0.3961,0.33088 -1.26402,1.73812 -1.78906,1.73438c-0.32609,-0.0829 -0.57976,-1.16357 -0.76172,-1.85547c-3.05475,-15.49221 -6.13718,-30.97126 -9.20508,-46.4668c-0.38012,-1.4721 -0.75148,-1.92456 -1.34765,-2.07617l-0.01,-0.004c-0.39528,-0.10049 -0.97195,0.38924 -1.57617,1.26367c-5.62053,9.85856 -11.19685,19.67926 -16.80664,29.53711c-0.21644,0.34145 -0.97979,1.41495 -1.25977,1.34375c-0.33927,-0.0862 -0.47504,-1.23329 -0.54101,-1.87109c0.007,-8.25776 -0.21979,-16.31649 -0.21289,-24.57422c-0.0536,-1.72237 -0.23189,-2.48629 -0.9043,-2.75195c-0.0107,-0.0132 -0.0432,-0.0208 -0.0762,-0.0293c-0.51384,-0.13067 -1.33606,0.747 -2.0586,1.94922c-3.56692,6.75616 -7.2457,13.75845 -9.30468,21.06641c-6.4018,19.50897 -10.62438,33.73555 -12.5625,51.02148c-2.42506,21.96562 5.819,42.11581 18.5957,60.67969c4.29201,5.48267 14.14985,15.00218 28.92578,24.74219h304.52924c49.6281,0 89.5801,-39.95204 89.5801,-89.58008v-377.60166c0,-49.62804 -39.952,-89.58203 -89.5801,-89.58203zM1060.08698,426.69824c0.8975,0.0572 1.7687,0.19121 2.6074,0.4043c2.3485,0.5967 4.4205,1.81125 6.0371,3.4668c3.641,3.83195 4.4758,9.61141 2.211,15.79296c-1.6103,4.43333 -4.7529,9.03895 -8.8496,12.94922c-7.4531,7.11452 -16.2598,10.47317 -22.9727,8.76758c-2.3419,-0.59503 -4.422,-1.81 -6.0254,-3.49023c-3.6525,-3.81387 -4.4733,-9.59591 -2.2109,-15.76758v0c1.6112,-4.43662 4.7496,-9.04598 8.8496,-12.94141c6.5157,-6.22666 14.0729,-9.58222 20.3555,-9.18164z" id="CompoundPath-1" fill="#1e1e1e"/></g></svg>